<svg width="24px" height="24px" viewBox="0 0 24 24" version="1.1" xmlns="http://www.w3.org/2000/svg" xmlns:xlink="http://www.w3.org/1999/xlink">
    <g id="Desktop-V2" stroke="none" stroke-width="1" fill="none" fill-rule="evenodd">
        <g id="Desktop" transform="translate(-79.000000, -5993.000000)" fill="currentColor" fill-rule="nonzero">
            <g id="Group-37" transform="translate(0.000000, 5880.000000)">
                <g id="Group-36">
                    <g id="Group-32" transform="translate(79.000000, 111.000000)">
                        <g id="Group-2" transform="translate(0.000000, 2.000000)">
                            <path d="M12.0007599,24 C5.36208207,24 0,18.6384593 0,12.0007589 C0,5.36154065 5.36208207,0 12.0007599,0 C18.6390578,0 24,5.36305853 24,12.0007589 C24,18.6384593 18.6390578,24 12.0007599,24 Z M17.1360997,8.06958545 L10.2549694,14.9615377 L7.00726442,11.7111273 C6.48820364,11.190134 5.70903273,11.190134 5.18958545,11.7111273 C4.67013818,12.2305745 4.67013818,13.0109049 5.18958545,13.5303522 L9.34439065,17.6909548 C9.60566026,17.9522244 9.99524571,18.0820862 10.2549694,18.0820862 C10.514693,18.0820862 10.9038919,17.9522244 11.1636156,17.6909548 L18.9553247,9.89035636 C19.4747719,9.37090909 19.4747719,8.5905787 18.9553247,8.06958545 C18.4362639,7.55013818 17.655547,7.55013818 17.1360997,8.06958545 Z" id="Combined-Shape"></path>
                        </g>
                    </g>
                </g>
            </g>
        </g>
    </g>
</svg>