<svg width="16px" height="16px" viewBox="0 0 16 16" version="1.1" xmlns="http://www.w3.org/2000/svg" xmlns:xlink="http://www.w3.org/1999/xlink">
    <g id="Desktop-V2" stroke="none" stroke-width="1" fill="none" fill-rule="evenodd">
        <g id="Group-7" fill="currentColor" fill-rule="nonzero">
            <g id="Group-27">
                <path d="M14.5,11 L14.5,5 C14.5,3.07 12.93,1.5 11,1.5 L5,1.5 C3.07,1.5 1.5,3.07 1.5,5 L1.5,11 C1.5,12.93 3.07,14.5 5,14.5 L11,14.5 C12.93,14.5 14.5,12.93 14.5,11 Z M11,0 C13.761,0 16,2.239 16,5 L16,11 C16,13.761 13.761,16 11,16 L5,16 C2.239,16 0,13.761 0,11 L0,5 C0,2.239 2.239,0 5,0 L11,0 Z M8,10.5 C9.378,10.5 10.5,9.378 10.5,8 C10.5,6.621 9.378,5.5 8,5.5 C6.622,5.5 5.5,6.621 5.5,8 C5.5,9.378 6.622,10.5 8,10.5 Z M8,4 C10.209,4 12,5.791 12,8 C12,10.209 10.209,12 8,12 C5.791,12 4,10.209 4,8 C4,5.791 5.791,4 8,4 Z M13,3 C13.5522983,3 14,3.44770169 14,4 C14,4.55229831 13.5522983,5 13,5 C12.4477017,5 12,4.55229831 12,4 C12,3.44770169 12.4477017,3 13,3 Z" id="Combined-Shape"></path>
            </g>
        </g>
    </g>
</svg>