<svg width="22px" height="22px" viewBox="0 0 22 22" version="1.1" xmlns="http://www.w3.org/2000/svg" xmlns:xlink="http://www.w3.org/1999/xlink">
    <g id="Symbols" stroke="none" stroke-width="1" fill="none" fill-rule="evenodd">
        <g id="Group" fill="currentColor" fill-rule="nonzero">
            <path d="M11,22 C4.92486775,22 0,17.0751322 0,11 C0,4.92486775 4.92486775,0 11,0 C17.0751322,0 22,4.92486775 22,11 C22,17.0751322 17.0751322,22 11,22 Z M11,18.8571429 C15.3393802,18.8571429 18.8571429,15.3393802 18.8571429,11 C18.8571429,6.66061982 15.3393802,3.14285714 11,3.14285714 C6.66061982,3.14285714 3.14285714,6.66061982 3.14285714,11 C3.14285714,15.3393802 6.66061982,18.8571429 11,18.8571429 Z" id="Oval-2"></path>
            <path d="M12,19 C16.9705627,19 21,14.7467051 21,9.5 C21,4.25329488 16.9705627,0 12,0 C12,7.38888889 12.7226563,19 12,19 Z" id="Oval-2"></path>
        </g>
    </g>
</svg>