<svg width="21px" height="21px" viewBox="0 0 21 21" version="1.1" xmlns="http://www.w3.org/2000/svg" xmlns:xlink="http://www.w3.org/1999/xlink">
    <g id="Desktop-V2" stroke="none" stroke-width="1" fill="none" fill-rule="evenodd">
        <g id="Desktop" transform="translate(-647.000000, -5996.000000)" fill-rule="nonzero">
            <g id="Group-37" transform="translate(0.000000, 5880.000000)">
                <g id="Group-33" transform="translate(647.000000, 112.000000)">
                    <g id="Group-5" transform="translate(0.000000, 4.000000)">
                        <path d="M15.5813161,11.9143231 L15.7888493,12.0369923 L19.6474129,14.3179458 C20.1235567,14.6130202 20.4414218,15.0328823 20.5453593,15.5518773 C20.6304909,16.1907715 20.4425975,16.7278966 20.0233196,17.1474401 L17.4094794,19.7412499 C17.2096864,19.9634253 16.9609275,20.1435239 16.6695266,20.2843582 C16.3978769,20.4155635 16.1220173,20.5027255 15.8433595,20.5425424 L15.7186515,20.551407 C15.5877941,20.567014 15.4736688,20.5714286 15.3402398,20.5714286 C15.0324793,20.5714286 14.5877431,20.5243741 13.982472,20.4317622 C13.3389661,20.3333283 12.5838265,20.1008093 11.7071457,19.7369693 C10.8354682,19.3752344 9.86296649,18.8416095 8.78473944,18.1363048 C7.69308274,17.4220603 6.54451865,16.4527454 5.34311324,15.23689 C4.38188676,14.2886739 3.58098621,13.3766605 2.94046404,12.4989355 C2.30573821,11.629169 1.79156089,10.8191224 1.39799761,10.0667223 C1.0042109,9.31394197 0.705846634,8.62438444 0.503746146,7.99545164 C0.305054054,7.37801979 0.168114547,6.83723725 0.0938486034,6.36936946 C0.0184672951,5.89442879 -0.0126964057,5.50820725 0.00469889217,5.19642951 C0.0160053516,4.99127845 0.0232087578,4.846917 0.0232087578,4.84642699 L0.0320620131,4.72179848 C0.0718748048,4.44298747 0.158894124,4.16729279 0.289984601,3.89558684 C0.430591415,3.60409078 0.610557987,3.355215 0.798967758,3.18727046 L3.44711746,0.537386822 C3.79410442,0.190172665 4.22849145,0 4.70790883,0 C5.06943714,0 5.40826352,0.110509126 5.69511779,0.326010724 C5.91370602,0.490142981 6.09886082,0.691779666 6.28429177,0.988783287 L8.40326608,5.0121696 C8.62908397,5.41393778 8.69346305,5.86468915 8.59707756,6.32291236 C8.50928836,6.74047017 8.31462688,7.107141 8.01940273,7.40228001 L7.26846033,8.1537096 C7.31624988,8.28391341 7.3820846,8.43124528 7.4676839,8.5964888 C7.60259555,8.86648876 7.82383211,9.21650529 8.12980038,9.63906302 C8.42919432,10.0523944 8.86875475,10.5449128 9.45994056,11.1238646 C10.0254679,11.7024003 10.5212023,12.1457595 10.9417296,12.4523201 C11.3720062,12.7660121 11.7236137,12.991569 11.9880974,13.1267261 C12.1678888,13.2185577 12.3093302,13.2807509 12.3992649,13.3129183 L13.3607385,12.3363154 C13.7610381,11.980518 14.2479999,11.7947636 14.7826469,11.7947636 C15.0470053,11.7947636 15.2909406,11.831864 15.5121228,11.9143231 L15.5813161,11.9143231 Z" id="Path" fill="currentColor"></path>
                        <path d="M19.3609815,20.9970605 L15.7034597,18.8331508 L15.4693201,18.7065123 C15.4893214,18.718531 15.4633455,18.7127459 15.3850017,18.7127459 C15.2822571,18.7127459 15.2114983,18.7397624 15.1765255,18.7681468 L14.0307093,19.9358652 C13.8906387,20.0768026 13.7320924,20.1622603 13.5513691,20.2225146 C13.4065616,20.2706958 13.2887689,20.2979262 13.1412778,20.2979262 L12.9672604,20.2806734 L12.7168344,20.2305252 C12.4524886,20.1775462 12.1465148,20.0541488 11.7661808,19.8597058 C11.4048015,19.6748608 10.9773873,19.4004185 10.4754277,19.0341254 C9.96345312,18.660553 9.39387979,18.1506815 8.77485269,17.516516 C8.12775528,16.8825491 7.62153858,16.3148154 7.25450334,15.8076292 C6.89446711,15.3099379 6.6229712,14.8800064 6.44416223,14.5216017 C6.22033351,14.0894188 6.07076177,13.6899449 5.99966288,13.3158243 L5.98403754,13.1499096 C5.98403754,13.001559 6.01186163,12.8623883 6.05934763,12.7195099 C6.11870331,12.5406731 6.20398946,12.3822999 6.34384599,12.2413679 L7.32569913,11.257957 C7.37573838,11.2078856 7.40687604,11.1491791 7.42538951,11.0610402 C7.43518319,11.014437 7.43311574,10.9999481 7.40841279,10.9552846 L5.30125024,6.94494323 C5.27997817,6.9114693 5.25738932,6.88250919 5.23294748,6.85714286 L2.53645068,9.55616751 C2.4927035,9.59558367 2.44685519,9.65904635 2.40131577,9.75354334 C2.35356249,9.85261183 2.32272763,9.94337964 2.30663121,10.02685 C2.30362196,10.0981302 2.29768664,10.210334 2.28777473,10.3903467 C2.27846465,10.5573697 2.30048853,10.8305728 2.35825855,11.1948924 C2.41724329,11.5668362 2.53335515,12.0257962 2.70742871,12.5672304 C2.87748935,13.0969485 3.13820943,13.7000667 3.49025879,14.3736868 C3.84265544,15.0480134 4.31360539,15.7906497 4.90325267,16.5993974 C5.48768554,17.4010075 6.23106859,18.2483121 7.14146012,19.1473191 C8.27545085,20.2959214 9.33701438,21.1926478 10.3215439,21.8374015 C11.3204151,22.4914053 12.2049678,22.9772234 12.9706529,23.2952687 C13.7310462,23.6111411 14.3602228,23.8050546 14.8482086,23.8797688 C15.3747735,23.9604131 15.7485822,24 15.9460145,24 C16.025671,24 16.0844194,23.9977254 16.1176607,23.9943735 C16.1722203,23.9887394 16.1943377,23.9864554 16.2279713,23.9844654 C16.3141962,23.969052 16.4085832,23.9375744 16.5116712,23.8877371 C16.6059536,23.8421279 16.6694584,23.7961083 16.7433163,23.7160155 L19.4053254,21.0699366 C19.4168476,21.0346986 19.396415,21.0191626 19.3609815,20.9970605 Z" id="Path"></path>
                    </g>
                </g>
            </g>
        </g>
    </g>
</svg>