<svg width="24px" height="24px" viewBox="0 0 24 24" version="1.1" xmlns="http://www.w3.org/2000/svg" xmlns:xlink="http://www.w3.org/1999/xlink">
    <g id="Desktop-V2" stroke="none" stroke-width="1" fill="none" fill-rule="evenodd">
        <g id="Desktop" transform="translate(-428.000000, -5993.000000)" fill-rule="nonzero">
            <g id="Group-37" transform="translate(0.000000, 5880.000000)">
                <g id="Group-36">
                    <g id="Group-29" transform="translate(427.000000, 111.000000)">
                        <g id="Group-3" transform="translate(0.000000, 1.000000)">
                            <g id="Combined-Shape-2" transform="translate(0.840000, 0.840000)">
                                <path d="M11.6743295,23.1936 C5.30119878,23.1936 0.1536,18.046521 0.1536,11.6743286 C0.1536,5.30067902 5.30119878,0.1536 11.6743295,0.1536 C18.0470954,0.1536 23.1936,5.30213619 23.1936,11.6743286 C23.1936,18.046521 18.0470954,23.1936 11.6743295,23.1936 Z" id="Path-Copy" fill="currentColor"></path>
                                <path d="M17.5935454,12.5952 L12.5952,12.5952 L12.5952,17.5935454 C15.1656532,17.1966383 17.1966383,15.1656532 17.5935454,12.5952 Z M17.5935454,10.752 C17.1966383,8.18154684 15.1656532,6.15056171 12.5952,5.75365464 L12.5952,10.752 L17.5935454,10.752 Z M10.752,12.5952 L10.752,10.752 L10.752,5.75365464 C7.881133,6.19694901 5.6832,8.67859713 5.6832,11.6736 C5.6832,14.6686029 7.881133,17.150251 10.752,17.5935454 L10.752,12.5952 Z M11.6736,19.5072 C7.34722218,19.5072 3.84,15.9999778 3.84,11.6736 C3.84,7.34722218 7.34722218,3.84 11.6736,3.84 C15.9999778,3.84 19.5072,7.34722218 19.5072,11.6736 C19.5072,15.9999778 15.9999778,19.5072 11.6736,19.5072 Z" id="Combined-Shape" fill="#FFFFFF"></path>
                            </g>
                        </g>
                    </g>
                </g>
            </g>
        </g>
    </g>
</svg>