<svg width="20px" height="17px" viewBox="0 0 20 17" version="1.1" xmlns="http://www.w3.org/2000/svg" xmlns:xlink="http://www.w3.org/1999/xlink">
    <g id="Symbols" stroke="none" stroke-width="1" fill="none" fill-rule="evenodd">
        <path d="M17.0025,5 L2.9975,5 C1.29875,5 0,6.19907675 0,7.76745528 L0,13.3081362 L3.99875,13.3081362 L3.99875,17 L16.00125,17 L16.00125,13.3081362 L20,13.3081362 L20,7.76745528 C20,6.19907675 18.70125,5 17.0025,5 Z M7,15 L15,15 L15,10 L7,10 L7,15 Z M17.0031309,9 C16.4007514,9 16,8.59924859 16,7.99686913 C16,7.40075141 16.4007514,7 17.0031309,7 C17.5992486,7 18,7.40075141 18,7.99686913 C18,8.59924859 17.5992486,9 17.0031309,9 Z M4,4 L16,4 L16,0 L4,0 L4,4 Z" id="Fill-1" fill="currentColor" fill-rule="nonzero"></path>
    </g>
</svg>