<svg width="19px" height="15px" viewBox="0 0 19 15" version="1.1" xmlns="http://www.w3.org/2000/svg" xmlns:xlink="http://www.w3.org/1999/xlink">
    <g id="Desktop-V2" stroke="none" stroke-width="1" fill="none" fill-rule="evenodd">
        <path d="M19,1.77437969 C18.3038825,2.07443739 17.5498789,2.28216965 16.7617374,2.37305251 C17.56769,1.90421235 18.1821733,1.16128102 18.4775408,0.275533756 C17.7235372,0.709751875 16.8893836,1.02567802 15.9958597,1.19446047 C15.2893524,0.461627236 14.2741192,0 13.1549879,0 C11.0042965,0 9.25880791,1.69648009 9.25880791,3.78678592 C9.25880791,4.08540104 9.29443012,4.37247548 9.35825326,4.64945182 C6.11663151,4.49076746 3.24755878,2.98615118 1.32247481,0.692440854 C0.985548004,1.25072129 0.794078588,1.90421235 0.794078588,2.59809579 C0.794078588,3.91084824 1.48425904,5.07212926 2.52769315,5.74725909 C1.88946176,5.73139065 1.29278963,5.55683785 0.765877666,5.27409117 L0.765877666,5.32025389 C0.765877666,7.15666474 2.11061636,8.68869013 3.89024295,9.03923832 C3.56519022,9.12290825 3.2178736,9.16762839 2.86461995,9.16762839 C2.61526443,9.16762839 2.37184595,9.14598961 2.12842747,9.10126947 C2.6271385,10.6058857 4.06390126,11.6979227 5.7693149,11.7325447 C4.43496602,12.7466821 2.75330052,13.3496826 0.927661901,13.3496826 C0.614483243,13.3496826 0.307241622,13.3323716 0,13.2991922 C1.72767753,14.3753606 3.77447074,15 5.97711116,15 C13.1431138,15 17.0630419,9.22965955 17.0630419,4.22677438 L17.0511679,3.73629544 C17.8170455,3.20109636 18.4775408,2.53606463 19,1.77437969 Z" id="twitter-logo-silhouette" fill="currentColor" fill-rule="nonzero"></path>
    </g>
</svg>