<svg width="19px" height="19px" viewBox="0 0 19 19" version="1.1" xmlns="http://www.w3.org/2000/svg" xmlns:xlink="http://www.w3.org/1999/xlink">
    <g id="Symbols" stroke="none" stroke-width="1" fill="none" fill-rule="evenodd">
        <path d="M0,6.625 L0,13.375 L4.88804001,13.375 L11,19 L11,1 L4.88804001,6.625 L0,6.625 Z M14,9 C14,7.2031885 13.199,5.69771804 12,5 L12,13 C13.199,12.302282 14,10.8018131 14,9 Z M12,0 L12,2.26736752 C14.9015544,3.23639722 17.00268,6.0463134 17.00268,9.5 C17.00268,12.9590851 14.9015544,15.7636028 12,16.7326325 L12,19 C16.0008933,18.0296207 19,14.1440546 19,9.5 C19,4.86134394 16.0008933,0.970379315 12,0 Z" id="Fill-1" fill="currentColor" fill-rule="nonzero"></path>
    </g>
</svg>