<svg width="20px" height="13px" viewBox="0 0 20 13" version="1.1" xmlns="http://www.w3.org/2000/svg" xmlns:xlink="http://www.w3.org/1999/xlink">
    <g id="Desktop-V2" stroke="none" stroke-width="1" fill="none" fill-rule="evenodd">
        <path d="M8,10 L8,3 L14,6.5 L8,10 Z M19.15,1.25272727 C18.6075,0.340363636 18.01875,0.172545455 16.82,0.108727273 C15.6225,0.0319090909 12.61125,0 10.0025,0 C7.38875,0 4.37625,0.0319090909 3.18,0.107545455 C1.98375,0.172545455 1.39375,0.339181818 0.84625,1.25272727 C0.2875,2.16390909 0,3.73336364 0,6.49645455 C0,6.49881818 0,6.5 0,6.5 C0,6.50236364 0,6.50354545 0,6.50354545 L0,6.50590909 C0,9.25718182 0.2875,10.8384545 0.84625,11.7401818 C1.39375,12.6525455 1.9825,12.818 3.17875,12.8948182 C4.37625,12.961 7.38875,13 10.0025,13 C12.61125,13 15.6225,12.961 16.82125,12.896 C18.02,12.8191818 18.60875,12.6537273 19.15125,11.7413636 C19.715,10.8396364 20,9.25836364 20,6.50709091 C20,6.50709091 20,6.50354545 20,6.50118182 C20,6.50118182 20,6.49881818 20,6.49763636 C20,3.73336364 19.715,2.16390909 19.15,1.25272727 Z" id="Fill-1" fill="currentColor" fill-rule="nonzero"></path>
    </g>
</svg>